<svg xmlns="http://www.w3.org/2000/svg" xmlns:xlink="http://www.w3.org/1999/xlink" width="200" zoomAndPan="magnify" viewBox="0 0 150 149.999998" height="200" preserveAspectRatio="xMidYMid meet" version="1.0"><defs><clipPath id="214911ed5a"><path d="M 10.820312 10.945312 L 139.179688 10.945312 L 139.179688 139.300781 L 10.820312 139.300781 Z M 10.820312 10.945312 " clip-rule="nonzero"/></clipPath><clipPath id="e166a12af3"><path d="M 75 10.945312 C 39.554688 10.945312 10.820312 39.679688 10.820312 75.125 C 10.820312 110.570312 39.554688 139.300781 75 139.300781 C 110.445312 139.300781 139.179688 110.570312 139.179688 75.125 C 139.179688 39.679688 110.445312 10.945312 75 10.945312 Z M 75 10.945312 " clip-rule="nonzero"/></clipPath><clipPath id="478a4574b5"><path d="M 0.820312 0.945312 L 129.179688 0.945312 L 129.179688 129.300781 L 0.820312 129.300781 Z M 0.820312 0.945312 " clip-rule="nonzero"/></clipPath><clipPath id="60d009f089"><path d="M 65 0.945312 C 29.554688 0.945312 0.820312 29.679688 0.820312 65.125 C 0.820312 100.570312 29.554688 129.300781 65 129.300781 C 100.445312 129.300781 129.179688 100.570312 129.179688 65.125 C 129.179688 29.679688 100.445312 0.945312 65 0.945312 Z M 65 0.945312 " clip-rule="nonzero"/></clipPath><clipPath id="87c5d29343"><rect x="0" width="130" y="0" height="130"/></clipPath><clipPath id="2ed9ceccda"><path d="M 0.09375 0.246094 L 150 0.246094 L 150 150 L 0.09375 150 Z M 0.09375 0.246094 " clip-rule="nonzero"/></clipPath></defs><g clip-path="url(#214911ed5a)"><g clip-path="url(#e166a12af3)"><g transform="matrix(1, 0, 0, 1, 10, 10)"><g clip-path="url(#87c5d29343)"><g clip-path="url(#478a4574b5)"><g clip-path="url(#60d009f089)"><path fill="#ffffff" d="M 0.820312 0.945312 L 129.179688 0.945312 L 129.179688 129.300781 L 0.820312 129.300781 Z M 0.820312 0.945312 " fill-opacity="1" fill-rule="nonzero"/></g></g></g></g></g></g><g clip-path="url(#2ed9ceccda)"><path fill="#0cc0df" d="M 115.519531 119.171875 L 34.921875 119.171875 C 27.546875 119.171875 21.542969 113.167969 21.542969 105.789062 L 21.542969 52.058594 C 21.542969 44.699219 27.546875 38.695312 34.921875 38.695312 L 55.644531 38.695312 L 58.210938 34.835938 C 59.503906 32.914062 62.011719 31.5625 64.335938 31.5625 L 86.085938 31.5625 C 88.371094 31.5625 90.960938 32.933594 92.210938 34.855469 L 94.78125 38.695312 L 115.519531 38.695312 C 122.878906 38.695312 128.882812 44.699219 128.882812 52.058594 L 128.882812 105.789062 C 128.882812 113.167969 122.878906 119.171875 115.519531 119.171875 Z M 75.210938 0.246094 C 33.730469 0.246094 0.09375 33.886719 0.09375 75.367188 C 0.09375 116.847656 33.730469 150.484375 75.210938 150.484375 C 116.691406 150.484375 150.332031 116.847656 150.332031 75.367188 C 150.332031 33.886719 116.691406 0.246094 75.210938 0.246094 " fill-opacity="1" fill-rule="nonzero"/></g><path fill="#0cc0df" d="M 75.210938 108.09375 C 59.140625 108.09375 46.0625 95.015625 46.0625 78.945312 C 46.0625 62.851562 59.140625 49.773438 75.210938 49.773438 C 91.28125 49.773438 104.363281 62.851562 104.363281 78.945312 C 104.363281 95.015625 91.28125 108.09375 75.210938 108.09375 Z M 40.460938 61.660156 C 37.328125 61.660156 34.800781 59.113281 34.800781 55.980469 C 34.800781 52.847656 37.328125 50.320312 40.460938 50.320312 C 43.597656 50.320312 46.144531 52.847656 46.144531 55.980469 C 46.144531 59.113281 43.597656 61.660156 40.460938 61.660156 Z M 115.519531 45.285156 L 91.242188 45.285156 L 86.714844 38.496094 C 86.613281 38.394531 86.230469 38.171875 86.046875 38.152344 L 64.335938 38.152344 C 64.175781 38.171875 63.789062 38.394531 63.667969 38.535156 L 59.179688 45.285156 L 34.921875 45.285156 C 31.183594 45.285156 28.132812 48.320312 28.132812 52.058594 L 28.132812 105.789062 C 28.132812 109.53125 31.183594 112.582031 34.921875 112.582031 L 115.519531 112.582031 C 119.261719 112.582031 122.292969 109.53125 122.292969 105.789062 L 122.292969 52.058594 C 122.292969 48.320312 119.261719 45.285156 115.519531 45.285156 " fill-opacity="1" fill-rule="nonzero"/><path fill="#0cc0df" d="M 75.210938 93.84375 C 66.984375 93.84375 60.3125 87.152344 60.3125 78.925781 C 60.3125 70.71875 66.984375 64.027344 75.210938 64.027344 C 83.4375 64.027344 90.109375 70.71875 90.109375 78.925781 C 90.109375 87.152344 83.4375 93.84375 75.210938 93.84375 Z M 75.210938 56.363281 C 62.78125 56.363281 52.652344 66.492188 52.652344 78.945312 C 52.652344 91.375 62.78125 101.484375 75.210938 101.484375 C 87.644531 101.484375 97.773438 91.375 97.773438 78.945312 C 97.773438 66.492188 87.644531 56.363281 75.210938 56.363281 " fill-opacity="1" fill-rule="nonzero"/></svg>