<svg xmlns="http://www.w3.org/2000/svg" xmlns:xlink="http://www.w3.org/1999/xlink" width="40" zoomAndPan="magnify" viewBox="0 0 30 30.000001" height="40" preserveAspectRatio="xMidYMid meet" version="1.0"><defs><clipPath id="f5aa256001"><path d="M 0.484375 0 L 29.515625 0 L 29.515625 29.03125 L 0.484375 29.03125 Z M 0.484375 0 " clip-rule="nonzero"/></clipPath></defs><g clip-path="url(#f5aa256001)"><path fill="#0cc0df" d="M 22.789062 22.980469 L 7.214844 22.980469 C 5.789062 22.980469 4.628906 21.820312 4.628906 20.394531 L 4.628906 10.011719 C 4.628906 8.589844 5.789062 7.429688 7.214844 7.429688 L 11.21875 7.429688 L 11.714844 6.683594 C 11.964844 6.3125 12.449219 6.050781 12.898438 6.050781 L 17.101562 6.050781 C 17.542969 6.050781 18.042969 6.316406 18.285156 6.6875 L 18.78125 7.429688 L 22.789062 7.429688 C 24.210938 7.429688 25.371094 8.589844 25.371094 10.011719 L 25.371094 20.394531 C 25.371094 21.820312 24.210938 22.980469 22.789062 22.980469 Z M 15 0 C 6.984375 0 0.484375 6.5 0.484375 14.515625 C 0.484375 22.53125 6.984375 29.03125 15 29.03125 C 23.015625 29.03125 29.515625 22.53125 29.515625 14.515625 C 29.515625 6.5 23.015625 0 15 0 " fill-opacity="1" fill-rule="nonzero"/></g><path fill="#0cc0df" d="M 15 20.839844 C 11.894531 20.839844 9.367188 18.3125 9.367188 15.207031 C 9.367188 12.097656 11.894531 9.570312 15 9.570312 C 18.105469 9.570312 20.632812 12.097656 20.632812 15.207031 C 20.632812 18.3125 18.105469 20.839844 15 20.839844 Z M 8.285156 11.867188 C 7.679688 11.867188 7.191406 11.375 7.191406 10.769531 C 7.191406 10.164062 7.679688 9.675781 8.285156 9.675781 C 8.890625 9.675781 9.382812 10.164062 9.382812 10.769531 C 9.382812 11.375 8.890625 11.867188 8.285156 11.867188 Z M 22.789062 8.703125 L 18.097656 8.703125 L 17.222656 7.390625 C 17.203125 7.371094 17.128906 7.328125 17.09375 7.324219 L 12.898438 7.324219 C 12.867188 7.328125 12.792969 7.371094 12.769531 7.398438 L 11.902344 8.703125 L 7.214844 8.703125 C 6.492188 8.703125 5.902344 9.289062 5.902344 10.011719 L 5.902344 20.394531 C 5.902344 21.117188 6.492188 21.707031 7.214844 21.707031 L 22.789062 21.707031 C 23.511719 21.707031 24.097656 21.117188 24.097656 20.394531 L 24.097656 10.011719 C 24.097656 9.289062 23.511719 8.703125 22.789062 8.703125 " fill-opacity="1" fill-rule="nonzero"/><path fill="#0cc0df" d="M 15 18.085938 C 13.410156 18.085938 12.121094 16.792969 12.121094 15.203125 C 12.121094 13.617188 13.410156 12.324219 15 12.324219 C 16.589844 12.324219 17.878906 13.617188 17.878906 15.203125 C 17.878906 16.792969 16.589844 18.085938 15 18.085938 Z M 15 10.84375 C 12.597656 10.84375 10.640625 12.800781 10.640625 15.207031 C 10.640625 17.609375 12.597656 19.5625 15 19.5625 C 17.402344 19.5625 19.359375 17.609375 19.359375 15.207031 C 19.359375 12.800781 17.402344 10.84375 15 10.84375 " fill-opacity="1" fill-rule="nonzero"/></svg>